<svg xmlns="http://www.w3.org/2000/svg" viewBox="0 0 47.5 47.5" id="O">
  <defs>
    <clipPath id="a">
      <path d="M0 38h38V0H0v38Z" fill="#000000" class="color000000 svgShape"></path>
    </clipPath>
  </defs>
  <g clip-path="url(#a)" transform="matrix(1.25 0 0 -1.25 0 47.5)" fill="#000000" class="color000000 svgShape">
    <path fill="#7f7f7f" d="M37 5a4 4 0 0 0-4-4H5a4 4 0 0 0-4 4v28a4 4 0 0 0 4 4h28a4 4 0 0 0 4-4V5Z" class="color3b88c3 svgShape"></path>
    <path fill="#ffffff" d="M24.832 19.038c0 3.752-1.954 7.131-5.83 7.131-3.876 0-5.829-3.379-5.829-7.131 0-3.782 1.891-7.132 5.829-7.132 3.937 0 5.83 3.35 5.83 7.132m-16.496 0c0 6.449 4.341 11.41 10.666 11.41 6.232 0 10.666-5.116 10.666-11.41 0-6.418-4.31-11.41-10.666-11.41-6.294 0-10.666 4.992-10.666 11.41" class="colorffffff svgShape"></path>
  </g>
</svg>
